<svg width="24.000000" height="24.000000" viewBox="0 0 24 24" fill="none" xmlns="http://www.w3.org/2000/svg" xmlns:xlink="http://www.w3.org/1999/xlink">
	<desc>
			Created with Pixso.
	</desc>
	<defs>
		<clipPath id="clip1_2623">
			<rect id="IMAGE" width="24.000000" height="24.000000" fill="white" fill-opacity="0"/>
		</clipPath>
	</defs>
	<g clip-path="url(#clip1_2623)">
		<path id="Vector" d="M10 21C10 20.4478 9.55228 20 9 20C8.44772 20 8 20.4478 8 21C8 21.5522 8.44772 22 9 22C9.55228 22 10 21.5522 10 21Z" stroke="#000000" stroke-opacity="1.000000" stroke-width="2.000000" stroke-linejoin="round"/>
		<path id="Vector" d="M21 21C21 20.4478 20.5523 20 20 20C19.4477 20 19 20.4478 19 21C19 21.5522 19.4477 22 20 22C20.5523 22 21 21.5522 21 21Z" stroke="#000000" stroke-opacity="1.000000" stroke-width="2.000000" stroke-linejoin="round"/>
		<path id="Vector" d="M1 1L5 1L7.67999 14.39C7.77144 14.8503 8.02191 15.264 8.38754 15.5583C8.75317 15.8525 9.21069 16.009 9.67999 16L19.4 16C19.8693 16.009 20.3268 15.8525 20.6925 15.5583C21.0581 15.264 21.3086 14.8503 21.4 14.39L23 6L6 6" stroke="#000000" stroke-opacity="1.000000" stroke-width="2.000000" stroke-linejoin="round" stroke-linecap="round"/>
	</g>
</svg>
