<svg width="512.000000" height="512.000000" viewBox="0 0 512 512" fill="none" xmlns="http://www.w3.org/2000/svg" xmlns:xlink="http://www.w3.org/1999/xlink">
	<desc>
			Created with Pixso.
	</desc>
	<defs>
		<clipPath id="clip282_1383">
			<rect id="svg" width="512.000000" height="512.000000" fill="white" fill-opacity="0"/>
		</clipPath>
	</defs>
	<g clip-path="url(#clip282_1383)">
		<path id="path" d="M421.5 439.79C416.45 439.79 412.14 438 408.57 434.42L77.53 103.42C73.95 99.84 72.16 95.53 72.16 90.47C72.16 85.42 73.95 81.1 77.53 77.53C81.1 73.95 85.42 72.16 90.47 72.16C95.53 72.16 99.84 73.95 103.42 77.53L434.46 408.57C440.21 414.34 441.52 420.98 438.41 428.49C435.29 436.01 429.64 439.77 421.5 439.79Z" fill="#000000" fill-opacity="1.000000" fill-rule="nonzero"/>
		<path id="path" d="M90.49 439.79C82.34 439.79 76.71 436.03 73.59 428.51C70.47 420.98 71.78 414.34 77.53 408.57L408.57 77.53C412.15 73.95 416.46 72.16 421.52 72.16C426.57 72.16 430.89 73.95 434.46 77.53C438.04 81.1 439.83 85.42 439.83 90.47C439.83 95.53 438.04 99.84 434.46 103.42L103.42 434.46C99.85 438.03 95.53 439.8 90.49 439.79Z" fill="#000000" fill-opacity="1.000000" fill-rule="nonzero"/>
	</g>
</svg>
