<svg width="27.000000" height="27.000000" viewBox="0 0 27 27" fill="none" xmlns="http://www.w3.org/2000/svg" xmlns:xlink="http://www.w3.org/1999/xlink">
	<desc>
			Created with Pixso.
	</desc>
	<defs>
		<clipPath id="clip275_1378">
			<rect id="svg" width="27.000000" height="27.000000" fill="white" fill-opacity="0"/>
		</clipPath>
	</defs>
	<g clip-path="url(#clip275_1378)">
		<path id="path" d="M13.5 1.12C12.45 1.12 11.45 1.32 10.48 1.72C9.52 2.12 8.67 2.69 7.93 3.43C7.19 4.17 6.62 5.02 6.22 5.98C5.82 6.95 5.62 7.95 5.62 9C5.62 14.89 12.28 24.94 12.56 25.37C12.78 25.7 13.09 25.87 13.5 25.87C13.9 25.87 14.21 25.7 14.43 25.37C14.71 24.94 21.37 14.89 21.37 9C21.37 7.95 21.17 6.95 20.77 5.98C20.37 5.02 19.8 4.17 19.06 3.43C18.32 2.69 17.47 2.12 16.51 1.72C15.54 1.32 14.54 1.12 13.5 1.12ZM13.5 12.37C12.56 12.37 11.77 12.04 11.11 11.38C10.45 10.72 10.12 9.93 10.12 9C10.12 8.06 10.45 7.27 11.11 6.61C11.77 5.95 12.56 5.62 13.5 5.62C14.43 5.62 15.22 5.95 15.88 6.61C16.54 7.27 16.87 8.06 16.87 9C16.87 9.93 16.54 10.72 15.88 11.38C15.22 12.04 14.43 12.37 13.5 12.37Z" fill="#000000" fill-opacity="1.000000" fill-rule="nonzero"/>
	</g>
</svg>
